<svg width="235" height="34" viewBox="0 0 235 34" fill="none" xmlns="http://www.w3.org/2000/svg">
<rect width="235" height="34" fill="none"/>
<g clip-path="url(#clip0_0_1)">
<path d="M79.2227 32H94.4453V29.414H87.5219C85.0536 31.106 82.1695 32.0047 79.2227 32ZM79.2227 26.182C78.4074 26.1809 77.6259 25.8401 77.0494 25.2342C76.473 24.6283 76.1487 23.8069 76.1477 22.95C76.1482 22.0928 76.4723 21.2708 77.0488 20.6645C77.6253 20.0582 78.4071 19.7171 79.2227 19.716V12.282C78.4074 12.2809 77.6259 11.9401 77.0494 11.3342C76.473 10.7283 76.1487 9.90685 76.1477 9.05C76.1484 8.19297 76.4726 7.37126 77.0491 6.76515C77.6256 6.15905 78.4073 5.81806 79.2227 5.817V0C70.815 0 64 7.163 64 16C64 24.837 70.815 32 79.2227 32V26.182V26.182ZM72.6103 19.232C71.7951 19.2309 71.0135 18.8901 70.4371 18.2842C69.8606 17.6783 69.5364 16.8569 69.5353 16C69.5364 15.1431 69.8606 14.3217 70.4371 13.7158C71.0135 13.1099 71.7951 12.7691 72.6103 12.768C73.4259 12.7685 74.2079 13.1091 74.7848 13.7151C75.3616 14.321 75.6862 15.1428 75.6872 16C75.6862 16.8569 75.3619 17.6783 74.7855 18.2842C74.209 18.8901 73.4275 19.2309 72.6122 19.232H72.6103Z" fill="#5BD2FB"/>
<path d="M94.4453 16C94.4453 7.163 87.6303 0 79.2227 0V5.818C80.0379 5.81906 80.8194 6.15991 81.3959 6.7658C81.9724 7.37169 82.2966 8.19315 82.2977 9.05C82.2971 9.9072 81.9731 10.7292 81.3966 11.3355C80.8201 11.9418 80.0382 12.2829 79.2227 12.284V19.718C80.0381 19.7191 80.8198 20.0601 81.3962 20.6662C81.9727 21.2723 82.2969 22.094 82.2977 22.951C82.2961 23.8075 81.9716 24.6285 81.3952 25.2339C80.8188 25.8394 80.0376 26.1799 79.2227 26.181V32C82.2843 32 85.1348 31.05 87.5219 29.414C91.6891 26.56 94.4453 21.618 94.4453 16ZM85.835 12.768C86.6501 12.7693 87.4314 13.1103 88.0076 13.7162C88.5839 14.322 88.908 15.1433 88.909 16C88.908 16.8569 88.5837 17.6783 88.0073 18.2842C87.4308 18.8901 86.6493 19.2309 85.8341 19.232C85.0187 19.2312 84.2369 18.8905 83.6602 18.2846C83.0836 17.6786 82.7591 16.857 82.7581 16C82.7591 15.143 83.0836 14.3214 83.6602 13.7154C84.2369 13.1095 85.0187 12.7688 85.8341 12.768H85.835Z" fill="#5BD2FB"/>
<path d="M198.402 25.132C199.532 25.132 200.453 24.34 200.453 23.13C200.453 21.898 199.532 21.084 198.402 21.084C197.23 21.084 196.309 21.898 196.309 23.13C196.309 24.34 197.23 25.132 198.402 25.132Z" fill="#5BD2FB"/>
<path d="M102.75 25V13.3636H107.773C108.636 13.3636 109.392 13.5208 110.04 13.8352C110.688 14.1496 111.191 14.6023 111.551 15.1932C111.911 15.7841 112.091 16.4924 112.091 17.3182C112.091 18.1515 111.905 18.8542 111.534 19.4261C111.167 19.9981 110.65 20.4299 109.983 20.7216C109.32 21.0133 108.545 21.1591 107.659 21.1591H104.659V18.7045H107.023C107.394 18.7045 107.71 18.6591 107.972 18.5682C108.237 18.4735 108.439 18.3239 108.58 18.1193C108.723 17.9148 108.795 17.6477 108.795 17.3182C108.795 16.9848 108.723 16.714 108.58 16.5057C108.439 16.2936 108.237 16.1383 107.972 16.0398C107.71 15.9375 107.394 15.8864 107.023 15.8864H105.909V25H102.75ZM109.568 19.6591L112.477 25H109.045L106.205 19.6591H109.568ZM113.438 25V13.3636H121.824V15.9091H116.597V17.9091H121.392V20.4545H116.597V22.4545H121.801V25H113.438ZM126.413 25H123.004L126.845 13.3636H131.163L135.004 25H131.595L129.05 16.5682H128.959L126.413 25ZM125.777 20.4091H132.186V22.7727H125.777V20.4091ZM146.442 17.7273H143.237C143.214 17.4621 143.154 17.2216 143.055 17.0057C142.961 16.7898 142.828 16.6042 142.658 16.4489C142.491 16.2898 142.288 16.1686 142.05 16.0852C141.811 15.9981 141.54 15.9545 141.237 15.9545C140.707 15.9545 140.258 16.0833 139.891 16.3409C139.527 16.5985 139.25 16.9678 139.061 17.4489C138.875 17.9299 138.783 18.5076 138.783 19.1818C138.783 19.8939 138.877 20.4905 139.067 20.9716C139.26 21.4489 139.538 21.8087 139.902 22.0511C140.266 22.2898 140.703 22.4091 141.214 22.4091C141.506 22.4091 141.768 22.3731 141.999 22.3011C142.23 22.2254 142.43 22.1174 142.601 21.9773C142.771 21.8371 142.91 21.6686 143.016 21.4716C143.125 21.2708 143.199 21.0455 143.237 20.7955L146.442 20.8182C146.404 21.3106 146.266 21.8125 146.027 22.3239C145.788 22.8314 145.449 23.3011 145.01 23.733C144.574 24.161 144.035 24.5057 143.391 24.767C142.747 25.0284 141.999 25.1591 141.146 25.1591C140.078 25.1591 139.12 24.9299 138.271 24.4716C137.427 24.0133 136.758 23.339 136.266 22.4489C135.777 21.5587 135.533 20.4697 135.533 19.1818C135.533 17.8864 135.783 16.7955 136.283 15.9091C136.783 15.0189 137.457 14.3466 138.305 13.892C139.154 13.4337 140.101 13.2045 141.146 13.2045C141.881 13.2045 142.557 13.3049 143.175 13.5057C143.792 13.7064 144.334 14 144.8 14.3864C145.266 14.7689 145.641 15.2405 145.925 15.8011C146.209 16.3617 146.381 17.0038 146.442 17.7273ZM147.557 15.9091V13.3636H157.67V15.9091H154.17V25H151.057V15.9091H147.557ZM158.859 25V13.3636H167.041V15.9091H162.018V17.9091H166.541V20.4545H162.018V25H158.859ZM168.203 25V13.3636H171.362V22.4545H176.067V25H168.203ZM180.503 13.3636V25H177.344V13.3636H180.503ZM185.386 13.3636L187.295 16.75H187.386L189.318 13.3636H192.841L189.364 19.1818L192.977 25H189.364L187.386 21.5455H187.295L185.318 25H181.727L185.295 19.1818L181.841 13.3636H185.386ZM203.766 25V13.3636H208.788C209.652 13.3636 210.408 13.5208 211.055 13.8352C211.703 14.1496 212.207 14.6023 212.567 15.1932C212.927 15.7841 213.107 16.4924 213.107 17.3182C213.107 18.1515 212.921 18.8542 212.55 19.4261C212.182 19.9981 211.665 20.4299 210.999 20.7216C210.336 21.0133 209.561 21.1591 208.675 21.1591H205.675V18.7045H208.038C208.41 18.7045 208.726 18.6591 208.987 18.5682C209.252 18.4735 209.455 18.3239 209.595 18.1193C209.739 17.9148 209.811 17.6477 209.811 17.3182C209.811 16.9848 209.739 16.714 209.595 16.5057C209.455 16.2936 209.252 16.1383 208.987 16.0398C208.726 15.9375 208.41 15.8864 208.038 15.8864H206.925V25H203.766ZM210.584 19.6591L213.493 25H210.061L207.22 19.6591H210.584ZM221.339 13.3636H224.499V20.8182C224.499 21.7045 224.286 22.4716 223.862 23.1193C223.442 23.7633 222.855 24.2614 222.101 24.6136C221.347 24.9621 220.472 25.1364 219.476 25.1364C218.472 25.1364 217.593 24.9621 216.839 24.6136C216.086 24.2614 215.499 23.7633 215.078 23.1193C214.661 22.4716 214.453 21.7045 214.453 20.8182V13.3636H217.612V20.5455C217.612 20.9053 217.692 21.2273 217.851 21.5114C218.01 21.7917 218.23 22.0114 218.51 22.1705C218.794 22.3295 219.116 22.4091 219.476 22.4091C219.839 22.4091 220.161 22.3295 220.442 22.1705C220.722 22.0114 220.942 21.7917 221.101 21.5114C221.26 21.2273 221.339 20.9053 221.339 20.5455V13.3636Z" fill="#FFFEFE"/>
</g>
<defs>
<clipPath id="clip0_0_1">
<rect width="235" height="34" fill="white"/>
</clipPath>
</defs>
</svg>
