<svg width="154" height="40" viewBox="0 0 154 40" fill="none" xmlns="http://www.w3.org/2000/svg">
<rect width="154" height="40" fill="none"/>
<g filter="url(#filter0_d_0_1)">
<path d="M13.5745 32H23.1489V29.414H18.7944C17.2419 31.106 15.4279 32.0047 13.5745 32ZM13.5745 26.182C13.0617 26.1809 12.5702 25.8401 12.2076 25.2342C11.845 24.6283 11.6411 23.8068 11.6404 22.95C11.6407 22.0928 11.8446 21.2708 12.2072 20.6645C12.5698 20.0582 13.0615 19.717 13.5745 19.716V12.282C13.0617 12.2809 12.5702 11.9401 12.2076 11.3342C11.845 10.7283 11.6411 9.90685 11.6404 9.04999C11.6409 8.19297 11.8448 7.37125 12.2074 6.76515C12.57 6.15905 13.0616 5.81806 13.5745 5.817V0C8.28637 0 4 7.163 4 16C4 24.837 8.28637 32 13.5745 32V26.182V26.182ZM9.41556 19.232C8.90281 19.2309 8.41125 18.8901 8.04868 18.2842C7.68612 17.6783 7.48215 16.8568 7.48152 16C7.48215 15.1431 7.68612 14.3217 8.04868 13.7158C8.41125 13.1099 8.90281 12.7691 9.41556 12.768C9.92851 12.7685 10.4204 13.1091 10.7832 13.7151C11.146 14.321 11.3502 15.1428 11.3508 16C11.3502 16.8568 11.1462 17.6783 10.7836 18.2842C10.4211 18.8901 9.9295 19.2309 9.41676 19.232H9.41556Z" fill="#5BD2FB"/>
<path d="M22.5745 16C22.5745 7.163 18.2881 0 13 0V5.818C13.5127 5.81906 14.0043 6.15991 14.3669 6.7658C14.7294 7.37169 14.9334 8.19315 14.934 9.05C14.9337 9.9072 14.7299 10.7292 14.3673 11.3355C14.0047 11.9418 13.513 12.2829 13 12.284V19.718C13.5128 19.7191 14.0045 20.0601 14.3671 20.6662C14.7297 21.2723 14.9336 22.094 14.934 22.951C14.9331 23.8075 14.729 24.6285 14.3665 25.2339C14.0039 25.8394 13.5125 26.1799 13 26.181V32C14.9257 32 16.7185 31.05 18.2199 29.414C20.8409 26.56 22.5745 21.618 22.5745 16ZM17.1589 12.768C17.6716 12.7693 18.163 13.1103 18.5254 13.7162C18.8878 14.322 19.0917 15.1433 19.0924 16C19.0917 16.8569 18.8878 17.6783 18.5252 18.2842C18.1626 18.8901 17.6711 19.2309 17.1583 19.232C16.6455 19.2312 16.1537 18.8905 15.7911 18.2846C15.4284 17.6786 15.2243 16.857 15.2237 16C15.2243 15.143 15.4284 14.3214 15.7911 13.7154C16.1537 13.1095 16.6455 12.7688 17.1583 12.768H17.1589Z" fill="#5BD2FB"/>
<path d="M121.29 21C121.986 21 122.553 20.2174 122.553 19.0217C122.553 17.8043 121.986 17 121.29 17C120.567 17 120 17.8043 120 19.0217C120 20.2174 120.567 21 121.29 21Z" fill="#5BD2FB"/>
<path d="M26.75 21V9.36364H31.7727C32.6364 9.36364 33.392 9.52083 34.0398 9.83523C34.6875 10.1496 35.1913 10.6023 35.5511 11.1932C35.911 11.7841 36.0909 12.4924 36.0909 13.3182C36.0909 14.1515 35.9053 14.8542 35.5341 15.4261C35.1667 15.9981 34.6496 16.4299 33.983 16.7216C33.3201 17.0133 32.5455 17.1591 31.6591 17.1591H28.6591V14.7045H31.0227C31.3939 14.7045 31.7102 14.6591 31.9716 14.5682C32.2367 14.4735 32.4394 14.3239 32.5795 14.1193C32.7235 13.9148 32.7955 13.6477 32.7955 13.3182C32.7955 12.9848 32.7235 12.714 32.5795 12.5057C32.4394 12.2936 32.2367 12.1383 31.9716 12.0398C31.7102 11.9375 31.3939 11.8864 31.0227 11.8864H29.9091V21H26.75ZM33.5682 15.6591L36.4773 21H33.0455L30.2045 15.6591H33.5682ZM37.4375 21V9.36364H45.8239V11.9091H40.5966V13.9091H45.392V16.4545H40.5966V18.4545H45.8011V21H37.4375ZM50.4134 21H47.0043L50.8452 9.36364H55.1634L59.0043 21H55.5952L53.0497 12.5682H52.9588L50.4134 21ZM49.777 16.4091H56.1861V18.7727H49.777V16.4091ZM70.4418 13.7273H67.2372C67.2145 13.4621 67.1539 13.2216 67.0554 13.0057C66.9607 12.7898 66.8281 12.6042 66.6577 12.4489C66.491 12.2898 66.2884 12.1686 66.0497 12.0852C65.8111 11.9981 65.5402 11.9545 65.2372 11.9545C64.7069 11.9545 64.258 12.0833 63.8906 12.3409C63.527 12.5985 63.2505 12.9678 63.0611 13.4489C62.8755 13.9299 62.7827 14.5076 62.7827 15.1818C62.7827 15.8939 62.8774 16.4905 63.0668 16.9716C63.2599 17.4489 63.5384 17.8087 63.902 18.0511C64.2656 18.2898 64.7031 18.4091 65.2145 18.4091C65.5062 18.4091 65.7675 18.3731 65.9986 18.3011C66.2296 18.2254 66.4304 18.1174 66.6009 17.9773C66.7713 17.8371 66.9096 17.6686 67.0156 17.4716C67.1255 17.2708 67.1993 17.0455 67.2372 16.7955L70.4418 16.8182C70.4039 17.3106 70.2656 17.8125 70.027 18.3239C69.7884 18.8314 69.4493 19.3011 69.0099 19.733C68.5743 20.161 68.0346 20.5057 67.3906 20.767C66.7467 21.0284 65.9986 21.1591 65.1463 21.1591C64.0781 21.1591 63.1198 20.9299 62.2713 20.4716C61.4266 20.0133 60.758 19.339 60.2656 18.4489C59.777 17.5587 59.5327 16.4697 59.5327 15.1818C59.5327 13.8864 59.7827 12.7955 60.2827 11.9091C60.7827 11.0189 61.4569 10.3466 62.3054 9.89205C63.1539 9.43371 64.1009 9.20455 65.1463 9.20455C65.8812 9.20455 66.5573 9.30492 67.1747 9.50568C67.7921 9.70644 68.3338 10 68.7997 10.3864C69.2656 10.7689 69.6406 11.2405 69.9247 11.8011C70.2088 12.3617 70.3812 13.0038 70.4418 13.7273ZM71.5568 11.9091V9.36364H81.6705V11.9091H78.1705V21H75.0568V11.9091H71.5568ZM82.8594 21V9.36364H91.0412V11.9091H86.0185V13.9091H90.5412V16.4545H86.0185V21H82.8594ZM92.2031 21V9.36364H95.3622V18.4545H100.067V21H92.2031ZM104.503 9.36364V21H101.344V9.36364H104.503ZM109.386 9.36364L111.295 12.75H111.386L113.318 9.36364H116.841L113.364 15.1818L116.977 21H113.364L111.386 17.5455H111.295L109.318 21H105.727L109.295 15.1818L105.841 9.36364H109.386ZM127.766 21V9.36364H132.788C133.652 9.36364 134.408 9.52083 135.055 9.83523C135.703 10.1496 136.207 10.6023 136.567 11.1932C136.927 11.7841 137.107 12.4924 137.107 13.3182C137.107 14.1515 136.921 14.8542 136.55 15.4261C136.182 15.9981 135.665 16.4299 134.999 16.7216C134.336 17.0133 133.561 17.1591 132.675 17.1591H129.675V14.7045H132.038C132.41 14.7045 132.726 14.6591 132.987 14.5682C133.252 14.4735 133.455 14.3239 133.595 14.1193C133.739 13.9148 133.811 13.6477 133.811 13.3182C133.811 12.9848 133.739 12.714 133.595 12.5057C133.455 12.2936 133.252 12.1383 132.987 12.0398C132.726 11.9375 132.41 11.8864 132.038 11.8864H130.925V21H127.766ZM134.584 15.6591L137.493 21H134.061L131.22 15.6591H134.584ZM145.339 9.36364H148.499V16.8182C148.499 17.7045 148.286 18.4716 147.862 19.1193C147.442 19.7633 146.855 20.2614 146.101 20.6136C145.347 20.9621 144.472 21.1364 143.476 21.1364C142.472 21.1364 141.593 20.9621 140.839 20.6136C140.086 20.2614 139.499 19.7633 139.078 19.1193C138.661 18.4716 138.453 17.7045 138.453 16.8182V9.36364H141.612V16.5455C141.612 16.9053 141.692 17.2273 141.851 17.5114C142.01 17.7917 142.23 18.0114 142.51 18.1705C142.794 18.3295 143.116 18.4091 143.476 18.4091C143.839 18.4091 144.161 18.3295 144.442 18.1705C144.722 18.0114 144.942 17.7917 145.101 17.5114C145.26 17.2273 145.339 16.9053 145.339 16.5455V9.36364Z" fill="#FFFEFE"/>
</g>
<defs>
<filter id="filter0_d_0_1" x="0" y="0" width="158" height="42" filterUnits="userSpaceOnUse" color-interpolation-filters="sRGB">
<feFlood flood-opacity="0" result="BackgroundImageFix"/>
<feColorMatrix in="SourceAlpha" type="matrix" values="0 0 0 0 0 0 0 0 0 0 0 0 0 0 0 0 0 0 127 0" result="hardAlpha"/>
<feOffset dy="4"/>
<feGaussianBlur stdDeviation="2"/>
<feComposite in2="hardAlpha" operator="out"/>
<feColorMatrix type="matrix" values="0 0 0 0 0 0 0 0 0 0 0 0 0 0 0 0 0 0 0.25 0"/>
<feBlend mode="normal" in2="BackgroundImageFix" result="effect1_dropShadow_0_1"/>
<feBlend mode="normal" in="SourceGraphic" in2="effect1_dropShadow_0_1" result="shape"/>
</filter>
</defs>
</svg>
